<svg width="607" height="416" viewBox="0 0 607 416" fill="none" xmlns="http://www.w3.org/2000/svg">
<path d="M76.1119 86.0173H40.8046V71.0973H76.1119V86.0173Z" fill="#E7E8E5"/>
<path d="M56.4166 104.829H21.1087V89.9107H56.4166V104.829Z" fill="#E7E8E5"/>
<path d="M95.8072 104.829H60.4999V89.9107H95.8072V104.829" fill="#E7E8E5"/>
<path d="M577.533 104.829H542.225V89.9107H577.533V104.829Z" fill="#E7E8E5"/>
<path d="M15.4401 281.311L88.8723 280.987L162.304 280.868L309.168 280.645L456.033 280.867L529.465 280.984L602.897 281.311L529.465 281.636L456.033 281.753L309.168 281.976L162.304 281.752L88.8723 281.635L15.4401 281.311" fill="#17282F"/>
<path d="M121.285 293.9C121.285 298.757 97.2785 302.693 67.666 302.693C38.0525 302.693 14.0468 298.757 14.0468 293.9C14.0468 289.045 38.0525 285.109 67.666 285.109C97.2785 285.109 121.285 289.045 121.285 293.9" fill="#E7E8E5"/>
<path d="M589.356 381.643C589.356 400.369 467.416 415.552 316.996 415.552C166.576 415.552 44.6359 400.369 44.6359 381.643C44.6359 362.916 166.576 347.734 316.996 347.734C467.416 347.734 589.356 362.916 589.356 381.643" fill="#E7E8E5"/>
<path d="M70.7754 180.537C69.477 186.055 68.1067 191.481 67.84 197.143C67.9895 197.42 67.9608 198.448 67.7947 198.168C67.7619 199.08 66.3739 198.913 66.3723 198.015C66.3868 197.428 66.401 196.84 66.4296 196.272C63.1854 192.243 58.4739 189.691 54.666 186.189C51.5868 183.356 49.3843 179.98 48.2187 175.931C45.0598 165.044 48.0207 153.509 44.2218 142.652C40.9478 133.291 35.0728 125.152 30.102 116.671C24.8567 107.7 20.9843 98.2746 20.5968 87.7693C20.2874 79.7239 21.2472 69.004 27.3744 62.9773C33.8687 56.5826 41.9187 61.3746 46.8952 67.0773C61.313 83.6253 67.9848 104.537 70.6816 125.919C72.1687 137.753 73.713 149.659 73.3567 161.605C73.1546 168.024 72.2322 174.301 70.7754 180.537" fill="#FABB1E"/>
<path d="M67.9026 201.488C68.6483 190.304 68.6015 179.101 67.5067 167.961C67.5254 167.921 67.5614 167.895 67.5619 167.84C67.7442 158.779 68.4639 149.752 68.1083 140.679C67.7218 130.823 66.277 121.161 64.1176 111.545C64.092 111.435 63.9202 111.46 63.942 111.573C65.7192 120.952 66.752 130.525 67.0952 140.064C67.2791 145.184 67.2426 150.308 66.9728 155.424C66.8848 157.088 66.7306 158.765 66.6196 160.444C66.6192 160.44 66.6187 160.435 66.6176 160.429C62.963 134.925 53.5499 110.731 39.6546 89.0786C39.4666 88.784 38.9447 89.0986 39.1291 89.4013C49.1348 105.739 56.5119 123.684 61.075 142.304C54.1411 129.459 43.6692 118.895 35.8988 106.552C35.8567 106.484 35.7452 106.555 35.7811 106.624C42.7608 120.365 54.292 131.203 61.6426 144.741C62.9182 150.26 63.9614 155.829 64.739 161.435C65.8051 169.128 66.3067 176.871 66.4108 184.623C62.1879 176.728 57.804 169.177 54.3488 160.829C54.2572 160.607 53.9379 160.759 54.013 160.979C56.952 169.652 60.903 178.995 66.4338 186.391C66.4635 191.879 66.3015 197.371 65.978 202.853C65.115 217.491 62.6155 231.932 61.4592 246.52C61.425 246.96 62.0426 247.011 62.1291 246.593C65.1687 231.867 66.9026 216.483 67.9026 201.488" fill="#17282F"/>
<path d="M52.3592 88.6106C52.3149 88.504 52.1587 88.576 52.1972 88.6826C54.8702 96.076 56.3805 103.565 58.3124 111.144C58.4009 111.489 58.9015 111.416 58.8644 111.055C58.0785 103.365 55.3337 95.6973 52.3592 88.6106Z" fill="#17282F"/>
<path d="M120.247 119.593C118.515 123.936 116.362 128.14 114.098 132.225C109.284 140.968 104.263 148.977 103.354 159.157C102.948 163.703 102.803 168.269 101.419 172.648C100.222 176.44 98.2785 179.937 96.0416 183.209C90.8244 190.809 84.302 197.359 79.4676 205.245C74.4363 213.443 70.7259 222.46 68.4556 231.8C68.3354 232.312 67.5285 232.173 67.6483 231.664C67.6665 231.623 67.6723 231.591 67.6796 231.548C67.6619 231.521 67.6332 231.496 67.6311 231.44C66.8655 209.613 68.6072 187.615 75.2649 166.705C78.1775 157.561 81.7676 148.468 85.842 139.777C89.4087 132.196 93.854 124.907 100.115 119.243C104.177 115.583 112.988 108.648 118.771 112.317C121.547 114.084 121.341 116.869 120.247 119.593" fill="#FABB1E"/>
<path d="M98.3103 169.075C94.5671 175.475 90.1291 181.431 85.6259 187.309C83.5124 190.068 81.3696 192.804 79.2603 195.567C78.263 196.872 77.1463 198.172 76.2311 199.573C76.8078 197.279 77.3696 194.98 77.9551 192.687C80.7707 181.659 83.4786 170.533 87.6739 159.929C91.7739 149.564 97.2264 139.832 102.829 130.22C102.976 129.967 102.568 129.784 102.419 130.029C97.8072 137.615 93.1254 145.189 89.2483 153.185C87.0816 157.653 85.2603 162.248 83.6583 166.925C85.5442 156.899 87.803 147.273 91.1004 137.568C91.1296 137.481 91.0056 137.42 90.9687 137.507C86.9472 147.024 84.0515 157.728 83.2463 168.043C83.2442 168.063 83.2535 168.077 83.2608 168.092C82.315 170.927 81.4458 173.788 80.6332 176.672C77.1952 188.884 74.1764 201.224 71.377 213.605C71.425 205.429 71.939 197.4 73.4827 189.333C73.5182 189.148 73.2411 189.105 73.1972 189.284C71.1687 197.593 70.2521 206.336 71.089 214.872C70.0311 219.58 69.002 224.293 67.9963 229.009C65.8504 239.071 63.2139 249.312 61.9603 259.528C61.9275 259.792 62.2958 259.847 62.3639 259.596C63.8603 254.089 64.7644 248.38 65.989 242.805C67.2176 237.213 68.4817 231.628 69.7838 226.052C71.6797 217.932 73.665 209.833 75.6874 201.741C77.0395 198.776 79.6535 196.143 81.6119 193.655C83.7603 190.924 85.9098 188.193 88.0005 185.419C91.8947 180.251 95.4666 174.884 98.503 169.167C98.5682 169.044 98.3791 168.959 98.3103 169.075" fill="#17282F"/>
<path d="M99.2416 159.74C94.5078 165.816 90.2103 172.543 86.8286 179.464C86.7859 179.553 86.9234 179.647 86.9786 179.56C91.1567 173.012 95.2639 166.416 99.4338 159.863C99.5035 159.753 99.3202 159.639 99.2416 159.74Z" fill="#17282F"/>
<path d="M6.32595 140.288C9.15512 145.16 12.3832 151.009 11.1687 156.86C10.3989 160.561 7.68897 163.568 7.19991 167.345C6.10408 175.683 14.4119 181.192 20.425 185.131C35.4119 194.964 55.9676 203.731 58.6926 223.813C58.7963 224.524 60.0254 224.347 59.9363 223.651C59.9363 223.607 59.9218 223.561 59.9067 223.517C59.9363 223.473 59.9811 223.457 59.9811 223.399C61.9212 213.225 61.8759 202.857 59.6999 192.728C57.4635 182.377 52.9468 173.076 47.615 163.983C38.5958 148.596 29.0442 132.839 15.404 121.051C11.628 117.792 3.89783 111.928 0.891053 119.288C-2.02613 126.441 2.86084 134.349 6.32595 140.288" fill="#FABB1E"/>
<path d="M20.0442 172.912C29.9806 183.671 45.778 189.7 54.3327 201.751C49.263 183.283 40.8754 166.675 27.9796 152.249C27.6483 151.88 28.165 151.353 28.528 151.701C37.9692 160.776 44.9603 171.383 50.0624 182.891C47.7682 174.673 44.5592 166.901 40.789 159.175C40.6472 158.884 41.0614 158.632 41.2291 158.919C46.0332 167.108 49.2254 176.303 51.2239 185.576C62.4942 212.86 63.539 244.86 61.177 273.619C61.1431 274.028 60.5171 274.041 60.5286 273.619C61.1754 250.955 60.8098 227.895 55.378 205.763C55.265 205.3 55.1395 204.844 55.0223 204.385C45.7166 191.413 29.9868 185.401 19.8723 173.084C19.775 172.965 19.9363 172.795 20.0442 172.912" fill="#17282F"/>
<path d="M17.74 163.673C22.9572 168.459 28.0916 173.353 33.3171 178.136C33.3696 178.184 33.3009 178.277 33.24 178.236C27.5525 174.389 21.7769 169.303 17.4296 163.984C17.2529 163.768 17.528 163.479 17.74 163.673Z" fill="#17282F"/>
<path d="M16.9166 142.939C21.6535 150.532 26.6223 157.653 32.5228 164.407C32.601 164.496 32.4786 164.62 32.392 164.537C26.0572 158.436 20.4302 151.057 16.6368 143.103C16.5472 142.916 16.8046 142.76 16.9166 142.939Z" fill="#17282F"/>
<path d="M40.4015 293.9H86.0931L79.9354 232.427H47.4395L40.4015 293.9Z" fill="#33535F"/>
<path d="M46.2921 242.419H80.9417L79.939 232.427H47.4363L46.2921 242.419" fill="#17282F"/>
<path d="M41.8327 235.432H84.663V225.616H41.8327V235.432" fill="#33535F"/>
<path d="M510.833 322.581H109.743V119.039H510.833V322.581Z" fill="#D4D6D3"/>
<path d="M109.743 322.581H57.4572V185.381H109.743V322.581" fill="#D4D6D3"/>
<path d="M563.119 322.581H510.833V185.381H563.119V322.581Z" fill="#D4D6D3"/>
<path d="M310.912 282.124H309.668V119.041H310.912V282.124Z" fill="#BEBFBD"/>
<path d="M110.369 322.58H109.124V185.381H110.369V322.58Z" fill="#BEBFBD"/>
<path d="M511.455 322.58H510.211V185.381H511.455V322.58Z" fill="#BEBFBD"/>
<path d="M110.399 281.485H309.649V241.487H110.399V281.485ZM310.927 282.762H109.124V240.211H310.927V282.762Z" fill="#BEBFBD"/>
<path d="M310.927 281.485H510.176V241.487H310.927V281.485ZM511.452 282.762H309.649V240.211H511.452V282.762Z" fill="#BEBFBD"/>
<path d="M123.38 163.824C122.265 163.824 122.263 165.555 123.38 165.555C124.493 165.555 124.495 163.824 123.38 163.824Z" fill="#999B9B"/>
<path d="M124.859 269.755C123.745 269.755 123.743 271.485 124.859 271.485C125.973 271.485 125.974 269.755 124.859 269.755Z" fill="#999B9B"/>
<path d="M174.508 253.212C174.469 253.121 174.424 253.035 174.375 252.951C174.233 252.699 173.843 252.699 173.701 252.951C173.652 253.035 173.608 253.121 173.568 253.212C173.077 254.236 175 254.236 174.508 253.212Z" fill="#999B9B"/>
<path d="M88.0759 271.935C88.0363 271.845 87.9917 271.759 87.9417 271.675C87.801 271.423 87.4109 271.423 87.2697 271.675C87.2197 271.759 87.175 271.845 87.1354 271.935C86.6447 272.96 88.5671 272.96 88.0759 271.935" fill="#999B9B"/>
<path d="M130.825 169.104C129.973 169.104 129.972 170.427 130.825 170.427C131.675 170.427 131.677 169.104 130.825 169.104Z" fill="#999B9B"/>
<path d="M401.112 190.653C400.261 190.653 400.26 191.976 401.112 191.976C401.964 191.976 401.965 190.653 401.112 190.653Z" fill="#999B9B"/>
<path d="M75.2124 236.247C74.3603 236.247 74.3592 237.569 75.2124 237.569C76.063 237.569 76.0644 236.247 75.2124 236.247Z" fill="#999B9B"/>
<path d="M162.041 132.204C161.723 131.851 161.067 131.851 160.748 132.204C160.392 132.599 160.337 132.939 160.433 133.453C160.608 134.405 162.18 134.405 162.356 133.453C162.449 132.943 162.397 132.599 162.041 132.204" fill="#999B9B"/>
<path d="M132.11 264.855C131.792 264.501 131.135 264.501 130.817 264.855C130.461 265.249 130.408 265.588 130.502 266.104C130.677 267.056 132.249 267.057 132.425 266.104C132.519 265.593 132.466 265.249 132.11 264.855" fill="#999B9B"/>
<path d="M474.531 272.053C475.644 272.053 475.647 270.321 474.531 270.321C473.416 270.321 473.415 272.053 474.531 272.053Z" fill="#999B9B"/>
<path d="M294.971 273.783C296.084 273.783 296.087 272.053 294.971 272.053C293.857 272.053 293.856 273.783 294.971 273.783Z" fill="#999B9B"/>
<path d="M469.549 134.5C470.663 134.5 470.665 132.769 469.549 132.769C468.435 132.769 468.433 134.5 469.549 134.5Z" fill="#999B9B"/>
<path d="M251.924 158.205C253.037 158.205 253.04 156.475 251.924 156.475C250.809 156.475 250.808 158.205 251.924 158.205Z" fill="#999B9B"/>
<path d="M410.643 182.665C410.681 182.755 410.727 182.84 410.777 182.925C410.917 183.177 411.308 183.177 411.448 182.925C411.5 182.84 411.544 182.755 411.583 182.665C412.075 181.64 410.152 181.64 410.643 182.665" fill="#999B9B"/>
<path d="M332.545 265.609C332.584 265.699 332.628 265.785 332.679 265.869C332.82 266.121 333.211 266.121 333.351 265.869C333.4 265.785 333.445 265.699 333.485 265.609C333.976 264.584 332.053 264.584 332.545 265.609Z" fill="#999B9B"/>
<path d="M539.863 249.939C539.901 250.028 539.947 250.115 539.997 250.199C540.137 250.451 540.528 250.451 540.668 250.199C540.719 250.115 540.764 250.028 540.803 249.939C541.295 248.913 539.372 248.913 539.863 249.939" fill="#999B9B"/>
<path d="M467.085 266.772C467.937 266.772 467.939 265.449 467.085 265.449C466.233 265.449 466.232 266.772 467.085 266.772Z" fill="#999B9B"/>
<path d="M522.699 199.628C523.549 199.628 523.551 198.305 522.699 198.305C521.847 198.305 521.845 199.628 522.699 199.628Z" fill="#999B9B"/>
<path d="M527.412 288.315C528.263 288.315 528.265 286.992 527.412 286.992C526.56 286.992 526.559 288.315 527.412 288.315Z" fill="#999B9B"/>
<path d="M423.111 303.672C423.429 304.025 424.084 304.025 424.403 303.672C424.759 303.279 424.813 302.939 424.718 302.422C424.542 301.47 422.971 301.47 422.795 302.422C422.701 302.934 422.755 303.277 423.111 303.672Z" fill="#999B9B"/>
<path d="M465.8 171.021C466.117 171.376 466.775 171.375 467.093 171.021C467.448 170.627 467.501 170.287 467.407 169.772C467.232 168.821 465.661 168.82 465.485 169.772C465.39 170.283 465.444 170.627 465.8 171.021Z" fill="#999B9B"/>
<path d="M225.511 213.444C225.829 213.796 226.485 213.796 226.804 213.444C227.159 213.049 227.213 212.709 227.117 212.193C226.943 211.243 225.371 211.241 225.195 212.193C225.101 212.705 225.155 213.048 225.511 213.444" fill="#999B9B"/>
<path d="M545.004 241.329C545.324 241.681 545.98 241.681 546.297 241.329C546.653 240.935 546.708 240.595 546.612 240.079C546.439 239.127 544.865 239.127 544.689 240.079C544.596 240.591 544.649 240.933 545.004 241.329Z" fill="#999B9B"/>
<path d="M110.369 281.601C110.369 281.601 155.984 293.513 209.951 293.513C263.919 293.513 310.912 282.124 310.912 282.124L110.369 281.601" fill="#BEBFBD"/>
<path d="M310.289 281.601C310.289 281.601 355.905 293.513 409.873 293.513C463.839 293.513 510.833 282.124 510.833 282.124L310.289 281.601" fill="#BEBFBD"/>
<path d="M563.12 322.58H57.4592V310.519H563.12V322.58Z" fill="#273E47"/>
<path d="M127.503 322.582L114.207 349.808L100.849 377.172H89.2213L93.5411 349.808L97.8359 322.582H127.503Z" fill="#273E47"/>
<path d="M97.84 322.582H127.503L119.441 339.092H95.2368L97.84 322.582" fill="#17282F"/>
<path d="M526.379 377.172H514.751L501.393 349.808L488.099 322.582H517.764L522.059 349.808L526.379 377.172" fill="#273E47"/>
<path d="M520.364 339.092H496.161L488.097 322.582H517.761L520.364 339.092Z" fill="#17282F"/>
<path d="M605.724 89.548C603.156 87.7 521.148 62.2546 517.415 63.2586C517.005 63.3733 516.144 67.0613 512.44 76.216C512.261 76.6506 473.243 123.953 473.243 123.953L526.645 152.139L557.125 109.167C557.125 109.167 595.249 101.937 599.24 100.4C603.211 98.8426 608.292 91.3946 605.724 89.548" fill="#E84E4B"/>
<path d="M605.724 89.548C603.156 87.7 521.148 62.2547 517.415 63.2587C517.005 63.3733 516.144 67.0613 512.44 76.216C512.261 76.6506 506.921 82.8466 504.302 86.2213C507.701 89.14 540.468 112.272 549.469 119.959L557.125 109.167C557.125 109.167 595.249 101.937 599.24 100.4C603.21 98.8427 608.292 91.3946 605.724 89.548Z" fill="#FABB1E"/>
<path d="M533.034 71.232C532.62 72.1653 532.084 73.0387 531.456 73.844C530.204 75.4507 528.612 76.7867 526.76 77.6507C524.88 78.5253 522.829 78.8867 520.761 78.74C518.682 78.5933 516.793 77.8573 514.966 76.8933C514.866 76.8387 514.958 76.6867 515.058 76.7413C518.426 78.604 523.046 78.2866 526.393 76.5373C528.038 75.6773 529.5 74.4333 530.597 72.9346C531.134 72.2 531.592 71.408 531.969 70.5787C532.157 70.1667 532.317 69.7387 532.453 69.3067C532.593 68.8667 532.628 68.4987 533.053 68.2507C533.266 68.1267 533.516 68.228 533.641 68.4213C534.104 69.1293 533.336 70.5507 533.034 71.232" fill="white"/>
<path d="M588.46 102.867C586.629 102.299 585.164 100.881 584.028 99.3773C582.817 97.7746 581.835 95.9933 581.059 94.1413C580.299 92.3306 579.735 90.392 579.449 88.448C579.311 87.4946 579.221 86.532 579.189 85.5693C579.161 84.6386 579.096 83.536 579.36 82.6373C579.407 82.476 579.656 82.4733 579.693 82.6426C579.877 83.4706 579.836 84.3853 579.929 85.232C580.036 86.1933 580.183 87.1466 580.385 88.0906C580.779 89.9386 581.312 91.724 582.037 93.4706C583.488 96.9666 585.565 100.072 588.778 102.144C589.149 102.383 588.9 103.003 588.46 102.867" fill="white"/>
<path d="M549.493 110.037C539.521 102.841 529.601 95.5773 519.556 88.4813C516.711 86.4707 513.884 84.4253 511.004 82.4613C510.909 82.3947 511.02 82.264 511.115 82.3227C521.616 88.752 531.927 95.4933 541.683 103.024C544.448 105.159 547.136 107.393 549.808 109.644C550.056 109.853 549.756 110.228 549.493 110.037Z" fill="white"/>
<path d="M511.94 84.0573C511.896 84.132 511.861 84.2013 511.792 84.256C511.721 84.312 511.641 84.36 511.566 84.412C511.425 84.508 511.281 84.6053 511.138 84.7C510.833 84.9013 510.525 85.096 510.206 85.2773C509.588 85.628 508.954 85.9507 508.313 86.26C508.224 86.304 508.141 86.1613 508.226 86.108C508.828 85.7373 509.414 85.344 509.996 84.9427C510.277 84.7467 510.564 84.5573 510.849 84.364C511 84.2613 511.15 84.1573 511.298 84.0533C511.45 83.9467 511.573 83.8493 511.76 83.816C511.881 83.7947 512.002 83.9427 511.94 84.0573" fill="white"/>
<path d="M516.591 87.4866C516.549 87.5613 516.512 87.632 516.444 87.6853C516.372 87.7413 516.293 87.7893 516.219 87.8413C516.076 87.9386 515.935 88.0346 515.789 88.1293C515.485 88.332 515.177 88.5266 514.859 88.7066C514.239 89.0586 513.607 89.3813 512.965 89.6906C512.876 89.7333 512.793 89.5906 512.88 89.5373C513.48 89.168 514.067 88.7746 514.647 88.372C514.929 88.176 515.216 87.9866 515.5 87.7933C515.652 87.6906 515.801 87.588 515.951 87.4826C516.104 87.376 516.224 87.28 516.411 87.2466C516.533 87.2253 516.656 87.3733 516.591 87.4866" fill="white"/>
<path d="M521.243 90.9173C521.2 90.992 521.165 91.0613 521.096 91.116C521.024 91.172 520.944 91.22 520.871 91.272C520.728 91.368 520.585 91.4653 520.443 91.56C520.136 91.7613 519.829 91.956 519.509 92.1373C518.891 92.488 518.257 92.8107 517.616 93.12C517.528 93.164 517.444 93.0213 517.531 92.968C518.131 92.5973 518.719 92.204 519.299 91.8026C519.581 91.6066 519.868 91.416 520.152 91.224C520.303 91.12 520.452 91.0173 520.603 90.9133C520.755 90.8053 520.877 90.7093 521.063 90.676C521.184 90.6547 521.307 90.8027 521.243 90.9173" fill="white"/>
<path d="M525.893 94.3466C525.852 94.4213 525.816 94.4906 525.747 94.5453C525.675 94.6013 525.597 94.6493 525.521 94.7013C525.38 94.7986 525.236 94.8947 525.093 94.9893C524.788 95.192 524.48 95.3867 524.163 95.5667C523.543 95.9173 522.909 96.24 522.269 96.5507C522.179 96.5933 522.096 96.4507 522.181 96.3973C522.783 96.028 523.371 95.6347 523.949 95.232C524.232 95.036 524.519 94.8453 524.804 94.6533C524.955 94.5507 525.105 94.4466 525.253 94.3426C525.405 94.2346 525.528 94.14 525.715 94.1066C525.836 94.0853 525.959 94.232 525.893 94.3466" fill="white"/>
<path d="M530.547 97.7773C530.503 97.852 530.466 97.9213 530.397 97.976C530.328 98.032 530.248 98.08 530.173 98.1307C530.032 98.228 529.889 98.324 529.745 98.42C529.44 98.6213 529.132 98.816 528.813 98.996C528.195 99.348 527.56 99.6706 526.92 99.98C526.83 100.024 526.748 99.88 526.833 99.828C527.435 99.4573 528.021 99.064 528.601 98.6627C528.885 98.4667 529.17 98.276 529.454 98.0826C529.606 97.98 529.756 97.8773 529.905 97.772C530.057 97.6653 530.179 97.5693 530.367 97.536C530.488 97.5146 530.611 97.6626 530.547 97.7773" fill="white"/>
<path d="M535.197 101.207C535.154 101.283 535.118 101.351 535.05 101.405C534.978 101.461 534.9 101.509 534.825 101.561C534.682 101.659 534.54 101.755 534.396 101.849C534.092 102.052 533.782 102.245 533.465 102.427C532.845 102.777 532.213 103.1 531.572 103.411C531.482 103.453 531.398 103.311 531.485 103.257C532.086 102.888 532.672 102.495 533.253 102.092C533.536 101.896 533.822 101.705 534.108 101.512C534.257 101.411 534.408 101.307 534.556 101.201C534.709 101.095 534.832 100.999 535.017 100.967C535.14 100.944 535.262 101.092 535.197 101.207" fill="white"/>
<path d="M539.849 104.636C539.807 104.712 539.77 104.781 539.701 104.835C539.63 104.891 539.552 104.94 539.477 104.991C539.333 105.088 539.192 105.184 539.048 105.28C538.743 105.481 538.436 105.676 538.116 105.856C537.499 106.207 536.864 106.531 536.222 106.84C536.133 106.884 536.052 106.74 536.137 106.688C536.737 106.317 537.325 105.924 537.904 105.523C538.188 105.327 538.473 105.136 538.758 104.943C538.909 104.84 539.059 104.737 539.209 104.632C539.361 104.525 539.482 104.429 539.669 104.396C539.79 104.375 539.913 104.523 539.849 104.636" fill="white"/>
<path d="M544.5 108.065C544.457 108.141 544.423 108.211 544.353 108.265C544.281 108.321 544.203 108.369 544.128 108.421C543.987 108.517 543.843 108.615 543.7 108.709C543.395 108.912 543.087 109.105 542.769 109.285C542.149 109.637 541.516 109.96 540.876 110.271C540.785 110.313 540.703 110.171 540.788 110.117C541.389 109.747 541.976 109.355 542.556 108.952C542.839 108.756 543.125 108.565 543.411 108.372C543.56 108.271 543.712 108.167 543.86 108.061C544.012 107.955 544.135 107.859 544.321 107.825C544.443 107.804 544.564 107.952 544.5 108.065" fill="white"/>
<path d="M549.152 111.496C549.111 111.572 549.073 111.64 549.004 111.695C548.935 111.751 548.855 111.8 548.78 111.851C548.637 111.948 548.496 112.044 548.351 112.139C548.047 112.341 547.739 112.535 547.42 112.716C546.8 113.067 546.167 113.391 545.527 113.7C545.437 113.744 545.355 113.6 545.441 113.547C546.041 113.177 546.628 112.784 547.208 112.383C547.492 112.185 547.777 111.996 548.061 111.803C548.213 111.7 548.363 111.596 548.512 111.492C548.665 111.385 548.785 111.288 548.972 111.255C549.095 111.233 549.217 111.383 549.152 111.496" fill="white"/>
<path d="M545.404 136.824L495.26 94.104C495.26 94.104 446.895 155.912 446.073 156.331C446.073 156.331 412.096 164.512 381.803 167.237C376.243 167.739 340.935 155.924 314.624 177.139L319.531 228.243C370.837 235.584 442.412 224.539 472.916 214.553C501.719 205.124 545.404 136.824 545.404 136.824" fill="#273E47"/>
<path d="M535.771 136.009C525.175 127.252 514.483 118.629 503.348 110.563C500.179 108.267 496.913 106.103 493.795 103.737C493.689 103.657 493.579 103.828 493.683 103.909C496.4 106.027 498.972 108.317 501.643 110.495C504.307 112.669 506.976 114.836 509.672 116.971C515.052 121.228 520.608 125.249 526.133 129.311C529.288 131.629 532.472 133.907 535.659 136.181C535.768 136.26 535.869 136.092 535.771 136.009" fill="#17282F"/>
<path d="M501.833 116.939C493.356 128.217 484.835 139.461 476.397 150.771C472.179 156.425 467.957 162.08 463.713 167.716C461.844 170.196 459.991 172.505 456.877 173.381C455.344 173.812 453.751 173.965 452.173 174.16C450.427 174.375 448.679 174.589 446.931 174.805C433.005 176.519 419.085 178.261 405.159 179.948C401.681 180.368 398.189 180.757 394.683 180.72C391.159 180.681 387.727 180.027 384.265 179.44C378.019 178.38 371.697 178.031 365.375 178.437C352.864 179.241 340.644 182.873 329.349 188.228C327.916 188.905 326.496 189.612 325.081 190.333C324.964 190.393 325.072 190.563 325.189 190.507C336.768 184.955 349.444 181.077 362.256 179.901C368.599 179.321 374.993 179.363 381.303 180.28C384.677 180.769 388.011 181.519 391.409 181.841C394.896 182.173 398.403 181.964 401.877 181.596C408.876 180.855 415.855 179.893 422.839 179.032C429.832 178.171 436.823 177.307 443.815 176.445C447.292 176.015 450.787 175.655 454.255 175.143C457.128 174.719 459.751 173.901 461.835 171.785C464.037 169.551 465.757 166.753 467.604 164.228C469.732 161.319 471.879 158.421 474.02 155.52C482.391 144.185 490.691 132.8 499.019 121.435C500.061 120.012 501.104 118.589 502.147 117.168C502.276 116.991 501.967 116.763 501.833 116.939" fill="#17282F"/>
<path d="M472.528 0.298672C469.897 2.05734 417.331 69.9493 416.963 73.7987C416.927 74.2213 420.079 76.3213 427.355 82.9973C427.7 83.3173 428.056 85.964 428.389 89.936C429.636 104.853 430.661 138.564 430.661 138.564L485.727 125.02L476.317 67.6187L473.873 52.6907C473.873 52.6907 480.46 14.4506 480.42 10.1733C480.353 5.91065 475.159 -1.45999 472.528 0.298672" fill="#E84E4B"/>
<path d="M472.528 0.298675C469.897 2.05734 417.331 69.9493 416.963 73.7987C416.927 74.2213 420.079 76.3213 427.355 82.9973C427.7 83.3173 428.056 85.964 428.389 89.936C437.401 85.5893 465.077 72.8027 476.317 67.6187L473.873 52.6907C473.873 52.6907 480.46 14.4506 480.42 10.1733C480.353 5.91065 475.159 -1.45999 472.528 0.298675" fill="#FABB1E"/>
<path d="M429.903 61.9627C430.631 62.6773 431.263 63.4853 431.796 64.3547C432.863 66.092 433.556 68.0507 433.716 70.088C433.877 72.156 433.497 74.2027 432.635 76.088C431.769 77.9827 430.417 79.4946 428.873 80.868C428.788 80.944 428.677 80.8027 428.765 80.728C431.688 78.2267 433.011 73.788 432.545 70.04C432.316 68.1986 431.663 66.3933 430.644 64.8413C430.144 64.08 429.561 63.3747 428.917 62.7307C428.597 62.4107 428.253 62.112 427.896 61.832C427.532 61.5467 427.2 61.3853 427.116 60.9C427.076 60.6573 427.259 60.4586 427.483 60.408C428.308 60.224 429.371 61.44 429.903 61.9627" fill="white"/>
<path d="M478.952 21.1333C477.778 22.6507 475.937 23.5267 474.132 24.0627C472.205 24.636 470.193 24.9306 468.186 25.0093C466.225 25.0866 464.212 24.936 462.29 24.5213C461.349 24.3173 460.416 24.0653 459.503 23.756C458.621 23.4573 457.566 23.132 456.817 22.5693C456.682 22.4693 456.767 22.236 456.939 22.26C457.779 22.3773 458.621 22.736 459.447 22.9453C460.384 23.1826 461.329 23.3787 462.284 23.5213C464.153 23.7987 466.012 23.9253 467.9 23.8587C471.684 23.724 475.321 22.8666 478.388 20.5826C478.74 20.3186 479.233 20.7693 478.952 21.1333Z" fill="white"/>
<path d="M472.667 61.92C461.595 67.272 450.487 72.5453 439.468 78.008C436.345 79.556 433.204 81.0707 430.107 82.6693C430.003 82.7227 429.941 82.5627 430.037 82.5067C440.685 76.324 451.519 70.4587 462.781 65.456C465.975 64.0387 469.219 62.7373 472.468 61.456C472.772 61.3373 472.959 61.7787 472.667 61.92Z" fill="white"/>
<path d="M431.955 82.6066C432 82.6786 432.045 82.744 432.059 82.8307C432.075 82.92 432.08 83.012 432.089 83.1013C432.108 83.2733 432.124 83.4453 432.14 83.616C432.172 83.9813 432.197 84.344 432.205 84.7093C432.22 85.4213 432.203 86.132 432.169 86.844C432.167 86.9427 432 86.948 431.995 86.8467C431.955 86.1427 431.888 85.4386 431.811 84.7373C431.772 84.3946 431.74 84.0533 431.707 83.7107C431.688 83.5307 431.667 83.348 431.647 83.168C431.625 82.9826 431.599 82.8293 431.659 82.6493C431.697 82.5333 431.885 82.4946 431.955 82.6066Z" fill="white"/>
<path d="M437.184 80.144C437.229 80.2173 437.275 80.2826 437.288 80.368C437.304 80.4573 437.309 80.5506 437.319 80.6413C437.336 80.812 437.353 80.9826 437.369 81.1546C437.401 81.5186 437.427 81.8826 437.433 82.248C437.448 82.96 437.432 83.6706 437.399 84.3826C437.395 84.4813 437.229 84.4853 437.223 84.3853C437.183 83.68 437.116 82.9773 437.039 82.276C437 81.9346 436.969 81.592 436.936 81.2493C436.917 81.068 436.896 80.8866 436.876 80.7053C436.853 80.5213 436.828 80.368 436.888 80.188C436.927 80.0706 437.113 80.0333 437.184 80.144Z" fill="white"/>
<path d="M442.413 77.6827C442.459 77.756 442.503 77.82 442.517 77.9066C442.533 77.996 442.539 78.088 442.548 78.1787C442.565 78.3507 442.583 78.5213 442.599 78.6933C442.631 79.0573 442.656 79.4213 442.663 79.7867C442.676 80.4987 442.66 81.2093 442.628 81.9213C442.623 82.02 442.459 82.024 442.452 81.9227C442.412 81.2187 442.345 80.516 442.268 79.8147C442.229 79.4733 442.199 79.1307 442.165 78.788C442.145 78.6067 442.125 78.4253 442.105 78.244C442.083 78.06 442.056 77.9067 442.116 77.7267C442.155 77.6093 442.343 77.572 442.413 77.6827" fill="white"/>
<path d="M447.643 75.2213C447.688 75.2947 447.731 75.3587 447.747 75.4453C447.763 75.5347 447.768 75.6267 447.777 75.7173C447.795 75.8893 447.812 76.06 447.828 76.232C447.86 76.596 447.884 76.9587 447.891 77.3253C447.905 78.0373 447.889 78.748 447.857 79.4587C447.852 79.5587 447.687 79.5627 447.681 79.4613C447.641 78.7573 447.575 78.0547 447.497 77.3533C447.459 77.0107 447.428 76.6693 447.392 76.3267C447.375 76.144 447.355 75.964 447.333 75.7827C447.312 75.5973 447.285 75.4453 447.344 75.2653C447.384 75.148 447.572 75.1107 447.643 75.2213" fill="white"/>
<path d="M452.871 72.76C452.917 72.8333 452.96 72.8973 452.976 72.984C452.992 73.0733 452.997 73.1653 453.005 73.256C453.024 73.4267 453.04 73.5986 453.056 73.7706C453.088 74.1346 453.112 74.4973 453.12 74.864C453.135 75.576 453.117 76.2853 453.087 76.9973C453.081 77.096 452.916 77.1013 452.911 77.0013C452.871 76.296 452.804 75.592 452.725 74.892C452.688 74.5493 452.657 74.2067 452.621 73.8653C452.604 73.684 452.584 73.5027 452.563 73.3213C452.541 73.136 452.515 72.9826 452.573 72.804C452.612 72.6866 452.801 72.648 452.871 72.76" fill="white"/>
<path d="M458.1 70.2987C458.147 70.3707 458.189 70.436 458.205 70.5227C458.221 70.612 458.225 70.704 458.235 70.7947C458.253 70.9653 458.269 71.1373 458.284 71.3093C458.317 71.6733 458.341 72.036 458.349 72.4013C458.364 73.1146 458.347 73.824 458.315 74.5346C458.311 74.6346 458.145 74.64 458.14 74.5386C458.1 73.8346 458.033 73.1307 457.955 72.4293C457.917 72.088 457.887 71.7453 457.851 71.4026C457.833 71.2226 457.813 71.04 457.792 70.86C457.771 70.6747 457.743 70.5213 457.803 70.3413C457.841 70.2253 458.031 70.1867 458.1 70.2987" fill="white"/>
<path d="M463.329 67.8373C463.376 67.9093 463.419 67.9747 463.433 68.0613C463.448 68.1493 463.453 68.2427 463.464 68.3333C463.481 68.504 463.499 68.6746 463.513 68.8466C463.547 69.2106 463.571 69.5746 463.579 69.94C463.593 70.652 463.576 71.3626 463.544 72.0733C463.54 72.1733 463.375 72.1773 463.368 72.0773C463.329 71.372 463.261 70.6706 463.184 69.968C463.147 69.6266 463.113 69.284 463.08 68.9413C463.061 68.76 463.043 68.5787 463.02 68.3973C463 68.2133 462.972 68.06 463.032 67.88C463.071 67.7626 463.26 67.7253 463.329 67.8373" fill="white"/>
<path d="M468.557 65.3747C468.604 65.448 468.648 65.512 468.663 65.5987C468.677 65.688 468.683 65.7813 468.693 65.8707C468.711 66.0427 468.727 66.2133 468.743 66.3853C468.776 66.7493 468.8 67.1133 468.808 67.4787C468.823 68.1907 468.805 68.9013 468.773 69.6133C468.769 69.712 468.604 69.7173 468.597 69.616C468.556 68.9107 468.491 68.208 468.413 67.5067C468.375 67.1653 468.343 66.8227 468.309 66.48C468.291 66.2987 468.272 66.1173 468.249 65.936C468.228 65.752 468.201 65.5987 468.261 65.4187C468.3 65.3013 468.488 65.264 468.557 65.3747" fill="white"/>
<path d="M473.787 62.9133C473.833 62.9866 473.877 63.0506 473.891 63.1373C473.907 63.2266 473.912 63.3186 473.921 63.4093C473.94 63.5813 473.956 63.752 473.972 63.9226C474.004 64.288 474.029 64.6506 474.037 65.0173C474.052 65.7293 474.035 66.44 474.001 67.1506C473.999 67.2506 473.833 67.2546 473.827 67.1546C473.785 66.4493 473.72 65.7466 473.641 65.0453C473.604 64.7026 473.572 64.3613 473.539 64.0186C473.52 63.8373 473.5 63.656 473.479 63.4746C473.456 63.2893 473.431 63.1373 473.491 62.9573C473.529 62.84 473.717 62.8026 473.787 62.9133" fill="white"/>
<path d="M479.121 83.704L423.568 95.504C423.568 95.504 430.232 175.917 429.989 176.807C429.989 176.807 401.613 180.517 378.903 179.275C378.903 179.275 340.705 160.06 314.624 188.711L310.921 238.977C383.581 247.791 480.864 243.705 493.761 218.96C507.768 192.085 479.121 83.704 479.121 83.704" fill="#273E47"/>
<path d="M429.856 176.451C423.695 176.451 413.352 177.616 407.193 177.853C401.08 178.091 394.969 178.451 388.86 178.768C385.344 178.951 382.401 178.732 378.897 179.069C378.767 179.081 378.772 179.267 378.903 179.275C391.171 179.952 402.944 179.657 415.167 178.56C418.685 178.244 426.513 177.411 430.007 176.888C430.171 176.863 430.461 176.451 429.856 176.451" fill="#17282F"/>
<path d="M375.435 173.972C373.196 171.373 370.553 169.275 367.793 167.255C367.7 167.185 367.588 167.341 367.673 167.419C370.156 169.651 372.348 172.215 374.529 174.735C376.741 177.292 379.06 179.815 380.875 182.68C380.913 182.741 381.004 182.684 380.969 182.621C379.316 179.6 377.692 176.596 375.435 173.972" fill="#17282F"/>
<path d="M497.623 181.539C497.557 178.789 497.315 176.049 497.104 173.305C496.684 167.873 496.147 162.452 495.423 157.052C493.961 146.172 492.075 135.371 489.643 124.665C488.963 121.673 488.265 118.684 487.5 115.713C486.725 112.715 486.023 109.613 484.911 106.719C484.823 106.489 484.407 106.512 484.449 106.793C484.843 109.427 485.547 112.039 486.132 114.637C486.725 117.273 487.315 119.909 487.873 122.553C489.015 127.943 490.056 133.356 491.008 138.783C492.899 149.568 494.433 160.404 495.713 171.281C496.072 174.335 496.376 177.395 496.705 180.451C496.871 181.98 497.487 194.217 497.515 195.789C497.517 195.923 497.732 195.915 497.721 195.784C497.596 194.421 497.721 185.621 497.623 181.539" fill="#17282F"/>
<path d="M429.855 168.005C429.724 166.496 429.223 160.689 428.637 159.568C428.605 159.505 428.516 159.532 428.497 159.591C428.084 160.875 428.645 166.848 428.793 168.356C428.943 169.868 429.736 176.299 430.027 176.804C430.075 176.887 430.187 176.853 430.215 176.776C430.429 176.149 429.984 169.515 429.855 168.005" fill="#17282F"/>
<path d="M481.061 190.221C480.853 180.432 480.181 170.656 479.193 160.916C477.245 141.703 474.069 122.621 470.676 103.617C470.26 101.285 469.84 98.9546 469.423 96.6226C469.399 96.492 469.205 96.5533 469.225 96.6813C472.4 115.695 475.66 134.707 477.816 153.868C478.887 163.383 479.705 172.927 480.112 182.495C480.309 187.136 480.428 191.785 480.4 196.432C480.379 200.321 480.193 204.243 479.328 208.045C478.472 211.793 476.895 215.401 474.215 218.211C471.523 221.029 467.984 222.845 464.343 224.125C460.36 225.527 456.187 226.392 452.052 227.209C447.46 228.116 442.835 228.851 438.192 229.433C419.6 231.765 400.803 231.785 382.099 231.411C362.921 231.027 343.749 230.315 324.569 230.104C322.167 230.076 319.764 230.045 317.361 229.988C317.228 229.985 317.235 230.188 317.367 230.192C327.256 230.499 337.143 230.932 347.033 231.233C356.832 231.535 366.629 231.837 376.429 232.105C395.357 232.62 414.356 232.883 433.215 230.881C442.309 229.916 451.461 228.536 460.317 226.205C464.02 225.229 467.723 223.961 470.965 221.884C474.113 219.864 476.625 217.073 478.227 213.688C481.636 206.484 481.227 197.985 481.061 190.221" fill="#17282F"/>
<path d="M479.211 92.4026C465.625 94.5066 452.077 96.7746 438.653 99.74C434.831 100.584 431.045 101.588 427.205 102.348C427.075 102.373 427.129 102.569 427.259 102.547C430.648 101.921 434.067 101.519 437.468 100.971C440.864 100.421 444.257 99.8666 447.644 99.268C454.397 98.0733 461.095 96.5907 467.801 95.1573C471.631 94.34 475.447 93.4733 479.264 92.6013C479.395 92.572 479.337 92.384 479.211 92.4026Z" fill="#17282F"/>
<path d="M192.807 120.863L201.08 158.721C201.445 159.836 200.863 160.715 199.78 160.679L180.4 160.064C179.317 160.031 178.14 159.097 177.775 157.981L169.503 120.123C169.136 119.005 169.719 118.129 170.801 118.164L190.181 118.78C191.264 118.813 192.441 119.745 192.807 120.863Z" fill="#17282F"/>
<path d="M190.508 120.769L198.779 158.628C199.145 159.743 198.564 160.62 197.48 160.587L178.1 159.971C177.017 159.937 175.841 159.004 175.475 157.889L167.203 120.029C166.836 118.912 167.419 118.036 168.5 118.071L187.881 118.687C188.965 118.72 190.14 119.652 190.508 120.769" fill="#273E47"/>
<path d="M185.139 122.316C185.131 123.227 185.861 123.971 186.771 123.98C187.681 123.988 188.425 123.257 188.435 122.348C188.444 121.439 187.713 120.693 186.803 120.685C185.893 120.676 185.148 121.407 185.139 122.316" fill="#17282F"/>
<path d="M253.476 180.679C241.971 203.789 216.644 233.565 206.452 233.465C201.603 233.419 192.917 234.38 186.683 228.664C173.077 216.188 162.005 192.672 159.943 179.307C159.208 174.553 182.476 164.823 185.788 168.756C193.545 177.967 202.4 195.893 203.812 195.819C209.036 195.541 229.823 179.024 244.332 167.389C261.948 153.264 258.061 171.468 253.476 180.679" fill="#E84E4B"/>
<path d="M159.932 154.828C162.589 145.272 164.739 143.227 162.697 133.971C161.36 127.896 164.663 124.436 168.833 129.38C175.655 137.467 174.816 150.515 173.223 154.956L159.932 154.828" fill="#E84E4B"/>
<path d="M160.972 183.456C160.972 183.456 156.988 169.963 158.812 159.5C160.073 152.264 164.573 136.828 185.088 129.096C189.955 127.263 198.189 128.1 191.329 133.981C186.456 138.16 182.104 139.337 179.713 142.283C179.713 142.283 190.06 144.592 191.707 149.537C192.443 151.748 194.311 157.829 195.089 162.771C195.089 162.771 194.059 163.229 192.669 163.624C192.669 163.624 193.772 168.392 190.176 174.9L160.972 183.456" fill="#E84E4B"/>
<path d="M161.119 152.785C164.112 150.364 170.539 145.337 177.227 143.053C184.657 140.516 199.651 137.631 201.468 143.135C202.799 147.171 197.171 148.775 197.171 148.775C197.171 148.775 203.62 148.889 204.025 152.797C204.395 156.359 199.967 157.339 199.967 157.339C199.967 157.339 203.867 158.081 203.561 161.58C203.196 165.789 195.083 163.544 191.028 167.487C190.116 168.371 161.119 152.785 161.119 152.785" fill="#E84E4B"/>
<path d="M178.599 151.349C181.785 149.532 190.084 147.264 197.051 148.665C197.208 148.696 197.269 148.833 197.119 148.835C189.12 148.921 181.721 150.543 178.623 151.419C178.581 151.431 178.563 151.369 178.599 151.349Z" fill="#17282F"/>
<path d="M181.377 158.775C184.288 157.489 192.945 155.533 199.956 157.195C200.113 157.232 200.165 157.373 200.015 157.368C191.655 157.116 184.543 158.156 181.397 158.845C181.355 158.855 181.34 158.791 181.377 158.775Z" fill="#17282F"/>
<path d="M242.432 205.673L228.143 179.163C228.143 179.163 239.365 169.004 246.369 164.259C255.636 157.979 260.14 159.948 256.656 173.221C254.324 182.103 242.432 205.673 242.432 205.673Z" fill="#FABB1E"/>
<path d="M244.5 189.951C243.952 189.951 243.509 190.395 243.509 190.94C243.509 191.487 243.952 191.929 244.5 191.929C245.045 191.929 245.489 191.487 245.489 190.94C245.489 190.395 245.045 189.951 244.5 189.951ZM233.981 189.953C233.969 189.953 233.969 189.953 233.955 189.953L234.796 191.487C234.901 191.34 234.969 191.14 234.969 190.941C234.969 190.395 234.528 189.953 233.981 189.953V189.953ZM239.249 197.74C238.901 197.74 238.583 197.927 238.409 198.207L239.223 199.728C239.235 199.728 239.235 199.728 239.249 199.728C239.796 199.728 240.235 199.275 240.235 198.728C240.235 198.18 239.796 197.74 239.249 197.74ZM255.013 174.091C254.467 174.091 254.024 174.533 254.024 175.08C254.024 175.625 254.467 176.069 255.013 176.069C255.56 176.069 256.003 175.625 256.003 175.08C256.003 174.533 255.56 174.091 255.013 174.091ZM244.5 174.091C243.952 174.091 243.509 174.533 243.509 175.08C243.509 175.625 243.952 176.069 244.5 176.069C245.045 176.069 245.489 175.625 245.489 175.08C245.489 174.533 245.045 174.091 244.5 174.091ZM233.981 174.087H233.943C233.621 174.353 233.315 174.62 233.008 174.888C232.996 174.953 232.996 175.007 232.996 175.073C232.996 175.62 233.436 176.073 233.981 176.073C234.528 176.073 234.969 175.62 234.969 175.073C234.969 174.527 234.528 174.087 233.981 174.087V174.087ZM249.756 181.883C249.209 181.883 248.767 182.325 248.767 182.872C248.767 183.419 249.209 183.861 249.756 183.861C250.303 183.861 250.747 183.419 250.747 182.872C250.747 182.325 250.303 181.883 249.756 181.883ZM239.243 181.883C238.696 181.883 238.252 182.325 238.252 182.872C238.252 183.419 238.696 183.861 239.243 183.861C239.789 183.861 240.232 183.419 240.232 182.872C240.232 182.325 239.789 181.883 239.243 181.883ZM250.747 167.011C250.747 167.559 250.303 168.001 249.756 168.001C249.209 168.001 248.767 167.559 248.767 167.011C248.767 166.464 249.209 166.021 249.756 166.021C250.303 166.021 250.747 166.464 250.747 167.011Z" fill="white"/>
<path d="M243.496 201.628C241.683 197.625 239.817 193.66 237.772 189.771C236.752 187.831 235.704 185.907 234.625 183.999C233.549 182.093 232.273 180.292 231.225 178.375C231.168 178.269 231.001 178.368 231.064 178.471C232.211 180.329 233.115 182.363 234.157 184.283C235.204 186.208 236.243 188.139 237.268 190.076C239.316 193.944 241.376 197.812 243.335 201.725C243.389 201.835 243.544 201.735 243.496 201.628Z" fill="#17282F"/>
<path d="M256.663 173.221C254.329 182.1 242.436 205.673 242.436 205.673L236.875 195.353L254.701 160.847C257.901 161.115 258.823 164.993 256.663 173.221Z" fill="#17282F"/>
<path d="M257.532 113.783C259.909 109.24 266.628 102.108 274.84 103.799C292.445 107.424 291.617 133.767 305.055 149.985C321.285 169.576 322.473 186.776 309.531 190.035C295.027 193.688 280.408 178.761 280.045 145.729C279.817 125.076 273.592 116.063 269.383 116.779C265.172 117.492 262.079 120.473 262.079 120.473L257.532 113.783" fill="#17282F"/>
<path d="M279.632 134.355C279.904 137.627 279.801 140.912 279.825 144.184C279.8 147.457 279.791 150.727 279.877 153.985C279.983 157.241 280.152 160.495 280.579 163.711C280.988 166.923 281.599 170.115 282.636 173.163C283.643 176.209 285.087 179.129 287.155 181.572C289.236 183.975 291.875 186.057 294.705 187.629C297.561 189.196 300.772 190.172 304.072 190.313C305.719 190.395 307.383 190.279 309.008 189.94C309.821 189.772 310.623 189.551 311.404 189.269C312.184 188.988 312.968 188.676 313.643 188.188C312.349 189.251 310.724 189.859 309.108 190.328C307.475 190.784 305.773 191.021 304.06 191.053C302.348 191.068 300.629 190.856 298.956 190.461C297.284 190.055 295.669 189.432 294.137 188.668C292.603 187.903 291.155 186.98 289.803 185.944L288.805 185.148L287.845 184.312C287.208 183.749 286.588 183.135 286.029 182.488C283.769 179.889 282.237 176.793 281.161 173.627C279.076 167.235 278.639 160.553 278.671 153.993C278.689 150.705 278.861 147.427 279.069 144.159C279.301 140.889 279.555 137.629 279.632 134.355" fill="#17282F"/>
<path d="M258.697 111.975C260.007 110.1 261.443 108.312 263.159 106.84C264.883 105.389 266.881 104.275 269.025 103.717C271.163 103.132 273.412 103.105 275.589 103.481C276.668 103.751 277.76 103.957 278.771 104.411C279.829 104.74 280.763 105.327 281.72 105.856C283.527 107.088 285.131 108.601 286.429 110.391C287.695 112.2 288.816 114.132 289.699 116.204C291.56 120.296 292.94 124.655 294.499 128.963C296.08 133.267 297.749 137.575 299.999 141.653C302.275 145.7 305.004 149.433 307.837 153.025C310.649 156.632 313.555 160.156 315.843 164.059C317.032 165.981 317.997 168.039 318.669 170.196L319.128 171.832C319.235 172.387 319.305 172.949 319.399 173.508L319.539 174.351L319.568 175.203L319.628 176.916C320.112 172.341 318.816 167.669 316.612 163.627C314.428 159.545 311.612 155.889 308.944 152.192C306.283 148.489 303.611 144.812 301.495 140.833C299.368 136.876 297.731 132.628 296.192 128.349C294.608 124.08 293.221 119.703 291.243 115.491C290.295 113.375 289.079 111.349 287.689 109.447C286.276 107.547 284.461 105.937 282.443 104.681C281.381 104.136 280.344 103.547 279.197 103.228C278.093 102.785 276.925 102.603 275.775 102.364C273.441 102.047 271.024 102.152 268.775 102.876C266.529 103.604 264.517 104.897 262.84 106.488C261.159 108.088 259.843 110 258.697 111.975Z" fill="#17282F"/>
<path d="M253.715 116.523C253.929 114.881 255.443 112.965 256.548 112.841C257.653 112.717 264.959 117.339 265.311 119.457C265.663 121.577 261.891 122.797 261.891 122.797L253.715 116.523Z" fill="#FABB1E"/>
<path d="M312.275 238.505C312.275 238.505 340.819 212.48 319.68 171.552C319.68 171.552 306.312 173.676 302.801 172.992C292.161 170.919 284.185 165.027 271.932 160.463C259.651 155.888 251.217 159.483 246.347 167.801C245.133 169.88 240.187 196.372 244.552 207.135C247.985 215.6 261.889 218.053 261.889 218.053C261.889 218.053 288.875 241.091 312.275 238.505" fill="#FABB1E"/>
<path d="M307.583 237.527C307.035 237.527 306.595 237.98 306.595 238.527C306.595 238.567 306.595 238.62 306.609 238.66C307.261 238.687 307.916 238.7 308.556 238.7C308.568 238.647 308.568 238.58 308.568 238.527C308.568 237.98 308.129 237.527 307.583 237.527V237.527ZM318.097 221.672C317.551 221.672 317.108 222.115 317.108 222.661C317.108 223.207 317.551 223.651 318.097 223.651C318.643 223.651 319.087 223.207 319.087 222.661C319.087 222.115 318.643 221.672 318.097 221.672ZM307.583 221.672C307.036 221.672 306.593 222.115 306.593 222.661C306.593 223.207 307.036 223.651 307.583 223.651C308.129 223.651 308.572 223.207 308.572 222.661C308.572 222.115 308.129 221.672 307.583 221.672ZM297.069 221.672C296.523 221.672 296.08 222.115 296.08 222.661C296.08 223.207 296.523 223.651 297.069 223.651C297.615 223.651 298.059 223.207 298.059 222.661C298.059 222.115 297.615 221.672 297.069 221.672ZM286.555 221.672C286.008 221.672 285.565 222.115 285.565 222.661C285.565 223.207 286.008 223.651 286.555 223.651C287.101 223.651 287.544 223.207 287.544 222.661C287.544 222.115 287.101 221.672 286.555 221.672ZM276.041 221.672C275.495 221.672 275.052 222.115 275.052 222.661C275.052 223.207 275.495 223.651 276.041 223.651C276.587 223.651 277.031 223.207 277.031 222.661C277.031 222.115 276.587 221.672 276.041 221.672ZM312.839 229.463C312.293 229.463 311.849 229.905 311.849 230.452C311.849 230.999 312.293 231.443 312.839 231.443C313.387 231.443 313.829 230.999 313.829 230.452C313.829 229.905 313.387 229.463 312.839 229.463ZM302.325 229.463C301.779 229.463 301.336 229.905 301.336 230.452C301.336 230.999 301.779 231.443 302.325 231.443C302.872 231.443 303.315 230.999 303.315 230.452C303.315 229.905 302.872 229.463 302.325 229.463ZM291.812 229.463C291.265 229.463 290.823 229.905 290.823 230.452C290.823 230.999 291.265 231.443 291.812 231.443C292.359 231.443 292.801 230.999 292.801 230.452C292.801 229.905 292.359 229.463 291.812 229.463ZM281.303 229.46C280.796 229.46 280.368 229.847 280.315 230.34C280.848 230.633 281.395 230.913 281.943 231.193C282.156 231.02 282.288 230.753 282.288 230.448C282.288 229.9 281.848 229.46 281.303 229.46V229.46ZM318.097 205.811C317.551 205.811 317.108 206.253 317.108 206.8C317.108 207.347 317.551 207.789 318.097 207.789C318.643 207.789 319.087 207.347 319.087 206.8C319.087 206.253 318.643 205.811 318.097 205.811ZM307.583 205.811C307.036 205.811 306.593 206.253 306.593 206.8C306.593 207.347 307.036 207.789 307.583 207.789C308.129 207.789 308.572 207.347 308.572 206.8C308.572 206.253 308.129 205.811 307.583 205.811ZM297.069 205.811C296.523 205.811 296.08 206.253 296.08 206.8C296.08 207.347 296.523 207.789 297.069 207.789C297.615 207.789 298.059 207.347 298.059 206.8C298.059 206.253 297.615 205.811 297.069 205.811ZM286.555 205.811C286.008 205.811 285.565 206.253 285.565 206.8C285.565 207.347 286.008 207.789 286.555 207.789C287.101 207.789 287.544 207.347 287.544 206.8C287.544 206.253 287.101 205.811 286.555 205.811ZM276.041 205.811C275.495 205.811 275.052 206.253 275.052 206.8C275.052 207.347 275.495 207.789 276.041 207.789C276.587 207.789 277.031 207.347 277.031 206.8C277.031 206.253 276.587 205.811 276.041 205.811ZM265.527 205.811C264.98 205.811 264.537 206.253 264.537 206.8C264.537 207.347 264.98 207.789 265.527 207.789C266.073 207.789 266.517 207.347 266.517 206.8C266.517 206.253 266.073 205.811 265.527 205.811ZM255.013 205.811C254.467 205.811 254.024 206.253 254.024 206.8C254.024 207.347 254.467 207.789 255.013 207.789C255.56 207.789 256.003 207.347 256.003 206.8C256.003 206.253 255.56 205.811 255.013 205.811ZM244.501 205.807C244.356 205.807 244.223 205.835 244.103 205.888C244.249 206.327 244.395 206.74 244.556 207.14C244.636 207.34 244.728 207.54 244.823 207.728C245.208 207.608 245.489 207.233 245.489 206.807C245.489 206.26 245.049 205.807 244.501 205.807ZM323.353 213.603C322.807 213.603 322.364 214.045 322.364 214.592C322.364 215.139 322.807 215.581 323.353 215.581C323.9 215.581 324.343 215.139 324.343 214.592C324.343 214.045 323.9 213.603 323.353 213.603ZM312.839 213.603C312.293 213.603 311.849 214.045 311.849 214.592C311.849 215.139 312.293 215.581 312.839 215.581C313.387 215.581 313.829 215.139 313.829 214.592C313.829 214.045 313.387 213.603 312.839 213.603ZM302.325 213.603C301.779 213.603 301.336 214.045 301.336 214.592C301.336 215.139 301.779 215.581 302.325 215.581C302.872 215.581 303.315 215.139 303.315 214.592C303.315 214.045 302.872 213.603 302.325 213.603ZM291.812 213.603C291.265 213.603 290.823 214.045 290.823 214.592C290.823 215.139 291.265 215.581 291.812 215.581C292.359 215.581 292.801 215.139 292.801 214.592C292.801 214.045 292.359 213.603 291.812 213.603ZM281.299 213.603C280.751 213.603 280.308 214.045 280.308 214.592C280.308 215.139 280.751 215.581 281.299 215.581C281.844 215.581 282.287 215.139 282.287 214.592C282.287 214.045 281.844 213.603 281.299 213.603ZM270.784 213.603C270.237 213.603 269.795 214.045 269.795 214.592C269.795 215.139 270.237 215.581 270.784 215.581C271.331 215.581 271.773 215.139 271.773 214.592C271.773 214.045 271.331 213.603 270.784 213.603ZM260.271 213.603C259.723 213.603 259.28 214.045 259.28 214.592C259.28 215.139 259.723 215.581 260.271 215.581C260.816 215.581 261.26 215.139 261.26 214.592C261.26 214.045 260.816 213.603 260.271 213.603ZM318.097 189.951C317.551 189.951 317.108 190.395 317.108 190.94C317.108 191.487 317.551 191.929 318.097 191.929C318.643 191.929 319.087 191.487 319.087 190.94C319.087 190.395 318.643 189.951 318.097 189.951ZM307.583 189.951C307.036 189.951 306.593 190.395 306.593 190.94C306.593 191.487 307.036 191.929 307.583 191.929C308.129 191.929 308.572 191.487 308.572 190.94C308.572 190.395 308.129 189.951 307.583 189.951ZM297.069 189.951C296.523 189.951 296.08 190.395 296.08 190.94C296.08 191.487 296.523 191.929 297.069 191.929C297.615 191.929 298.059 191.487 298.059 190.94C298.059 190.395 297.615 189.951 297.069 189.951ZM286.555 189.951C286.008 189.951 285.565 190.395 285.565 190.94C285.565 191.487 286.008 191.929 286.555 191.929C287.101 191.929 287.544 191.487 287.544 190.94C287.544 190.395 287.101 189.951 286.555 189.951ZM276.041 189.951C275.495 189.951 275.052 190.395 275.052 190.94C275.052 191.487 275.495 191.929 276.041 191.929C276.587 191.929 277.031 191.487 277.031 190.94C277.031 190.395 276.587 189.951 276.041 189.951ZM265.527 189.951C264.98 189.951 264.537 190.395 264.537 190.94C264.537 191.487 264.98 191.929 265.527 191.929C266.073 191.929 266.517 191.487 266.517 190.94C266.517 190.395 266.073 189.951 265.527 189.951ZM255.013 189.951C254.467 189.951 254.024 190.395 254.024 190.94C254.024 191.487 254.467 191.929 255.013 191.929C255.56 191.929 256.003 191.487 256.003 190.94C256.003 190.395 255.56 189.951 255.013 189.951ZM244.5 189.951C243.952 189.951 243.509 190.395 243.509 190.94C243.509 191.487 243.952 191.929 244.5 191.929C245.045 191.929 245.489 191.487 245.489 190.94C245.489 190.395 245.045 189.951 244.5 189.951ZM323.353 197.741C322.807 197.741 322.364 198.185 322.364 198.731C322.364 199.279 322.807 199.721 323.353 199.721C323.9 199.721 324.343 199.279 324.343 198.731C324.343 198.185 323.9 197.741 323.353 197.741ZM312.839 197.741C312.293 197.741 311.849 198.185 311.849 198.731C311.849 199.279 312.293 199.721 312.839 199.721C313.387 199.721 313.829 199.279 313.829 198.731C313.829 198.185 313.387 197.741 312.839 197.741ZM302.325 197.741C301.779 197.741 301.336 198.185 301.336 198.731C301.336 199.279 301.779 199.721 302.325 199.721C302.872 199.721 303.315 199.279 303.315 198.731C303.315 198.185 302.872 197.741 302.325 197.741ZM291.812 197.741C291.265 197.741 290.823 198.185 290.823 198.731C290.823 199.279 291.265 199.721 291.812 199.721C292.359 199.721 292.801 199.279 292.801 198.731C292.801 198.185 292.359 197.741 291.812 197.741ZM281.299 197.741C280.751 197.741 280.308 198.185 280.308 198.731C280.308 199.279 280.751 199.721 281.299 199.721C281.844 199.721 282.287 199.279 282.287 198.731C282.287 198.185 281.844 197.741 281.299 197.741ZM270.784 197.741C270.237 197.741 269.795 198.185 269.795 198.731C269.795 199.279 270.237 199.721 270.784 199.721C271.331 199.721 271.773 199.279 271.773 198.731C271.773 198.185 271.331 197.741 270.784 197.741ZM260.271 197.741C259.723 197.741 259.28 198.185 259.28 198.731C259.28 199.279 259.723 199.721 260.271 199.721C260.816 199.721 261.26 199.279 261.26 198.731C261.26 198.185 260.816 197.741 260.271 197.741ZM249.756 197.741C249.209 197.741 248.767 198.185 248.767 198.731C248.767 199.279 249.209 199.721 249.756 199.721C250.303 199.721 250.747 199.279 250.747 198.731C250.747 198.185 250.303 197.741 249.756 197.741ZM318.097 174.091C317.551 174.091 317.108 174.533 317.108 175.08C317.108 175.625 317.551 176.069 318.097 176.069C318.643 176.069 319.087 175.625 319.087 175.08C319.087 174.533 318.643 174.091 318.097 174.091ZM307.583 174.091C307.036 174.091 306.593 174.533 306.593 175.08C306.593 175.625 307.036 176.069 307.583 176.069C308.129 176.069 308.572 175.625 308.572 175.08C308.572 174.533 308.129 174.091 307.583 174.091ZM297.069 174.091C296.523 174.091 296.08 174.533 296.08 175.08C296.08 175.625 296.523 176.069 297.069 176.069C297.615 176.069 298.059 175.625 298.059 175.08C298.059 174.533 297.615 174.091 297.069 174.091ZM286.555 174.091C286.008 174.091 285.565 174.533 285.565 175.08C285.565 175.625 286.008 176.069 286.555 176.069C287.101 176.069 287.544 175.625 287.544 175.08C287.544 174.533 287.101 174.091 286.555 174.091ZM276.041 174.091C275.495 174.091 275.052 174.533 275.052 175.08C275.052 175.625 275.495 176.069 276.041 176.069C276.587 176.069 277.031 175.625 277.031 175.08C277.031 174.533 276.587 174.091 276.041 174.091ZM265.527 174.091C264.98 174.091 264.537 174.533 264.537 175.08C264.537 175.625 264.98 176.069 265.527 176.069C266.073 176.069 266.517 175.625 266.517 175.08C266.517 174.533 266.073 174.091 265.527 174.091ZM255.013 174.091C254.467 174.091 254.024 174.533 254.024 175.08C254.024 175.625 254.467 176.069 255.013 176.069C255.56 176.069 256.003 175.625 256.003 175.08C256.003 174.533 255.56 174.091 255.013 174.091ZM244.781 174.127C244.675 174.74 244.556 175.38 244.448 176.061C244.463 176.073 244.489 176.073 244.501 176.073C245.049 176.073 245.489 175.62 245.489 175.073C245.489 174.62 245.195 174.247 244.781 174.127V174.127ZM323.353 181.883C322.807 181.883 322.364 182.325 322.364 182.872C322.364 183.419 322.807 183.861 323.353 183.861C323.9 183.861 324.343 183.419 324.343 182.872C324.343 182.325 323.9 181.883 323.353 181.883ZM312.839 181.883C312.293 181.883 311.849 182.325 311.849 182.872C311.849 183.419 312.293 183.861 312.839 183.861C313.387 183.861 313.829 183.419 313.829 182.872C313.829 182.325 313.387 181.883 312.839 181.883ZM302.325 181.883C301.779 181.883 301.336 182.325 301.336 182.872C301.336 183.419 301.779 183.861 302.325 183.861C302.872 183.861 303.315 183.419 303.315 182.872C303.315 182.325 302.872 181.883 302.325 181.883ZM291.812 181.883C291.265 181.883 290.823 182.325 290.823 182.872C290.823 183.419 291.265 183.861 291.812 183.861C292.359 183.861 292.801 183.419 292.801 182.872C292.801 182.325 292.359 181.883 291.812 181.883ZM281.299 181.883C280.751 181.883 280.308 182.325 280.308 182.872C280.308 183.419 280.751 183.861 281.299 183.861C281.844 183.861 282.287 183.419 282.287 182.872C282.287 182.325 281.844 181.883 281.299 181.883ZM270.784 181.883C270.237 181.883 269.795 182.325 269.795 182.872C269.795 183.419 270.237 183.861 270.784 183.861C271.331 183.861 271.773 183.419 271.773 182.872C271.773 182.325 271.331 181.883 270.784 181.883ZM260.271 181.883C259.723 181.883 259.28 182.325 259.28 182.872C259.28 183.419 259.723 183.861 260.271 183.861C260.816 183.861 261.26 183.419 261.26 182.872C261.26 182.325 260.816 181.883 260.271 181.883ZM249.756 181.883C249.209 181.883 248.767 182.325 248.767 182.872C248.767 183.419 249.209 183.861 249.756 183.861C250.303 183.861 250.747 183.419 250.747 182.872C250.747 182.325 250.303 181.883 249.756 181.883ZM266.463 158.913C265.875 158.793 265.303 158.7 264.743 158.647C264.609 158.807 264.541 159.007 264.541 159.221C264.541 159.767 264.981 160.207 265.528 160.207C266.076 160.207 266.515 159.767 266.515 159.221C266.515 159.115 266.501 159.007 266.463 158.913ZM254.489 160.047C254.636 160.153 254.808 160.207 255.008 160.207C255.489 160.207 255.889 159.873 255.981 159.42C255.463 159.608 254.969 159.807 254.489 160.047ZM281.299 166.021C280.751 166.021 280.308 166.464 280.308 167.011C280.308 167.559 280.751 168.001 281.299 168.001C281.844 168.001 282.287 167.559 282.287 167.011C282.287 166.464 281.844 166.021 281.299 166.021ZM270.784 166.021C270.237 166.021 269.795 166.464 269.795 167.011C269.795 167.559 270.237 168.001 270.784 168.001C271.331 168.001 271.773 167.559 271.773 167.011C271.773 166.464 271.331 166.021 270.784 166.021ZM260.271 166.021C259.723 166.021 259.28 166.464 259.28 167.011C259.28 167.559 259.723 168.001 260.271 168.001C260.816 168.001 261.26 167.559 261.26 167.011C261.26 166.464 260.816 166.021 260.271 166.021ZM250.747 167.011C250.747 167.559 250.303 168.001 249.756 168.001C249.209 168.001 248.767 167.559 248.767 167.011C248.767 166.464 249.209 166.021 249.756 166.021C250.303 166.021 250.747 166.464 250.747 167.011Z" fill="white"/>
<path d="M277.629 169.143C291.035 192.153 308.309 230.411 297.648 237.108C280.119 248.116 232.791 249.739 221.987 249.671C217.323 249.64 211.935 218.459 215.493 214.965C219.051 211.473 268.433 214.949 269.159 211.985C269.571 210.304 267.443 195.16 264.963 176.337C262.103 154.632 273.795 162.561 277.629 169.143" fill="#E84E4B"/>
<path d="M223.84 213.511C223.84 213.511 209.783 211.619 200.532 210.813C195.371 210.364 186.453 210.384 182.511 211.787C176.613 213.889 153.291 226.44 156.212 232.16C158.857 237.339 177.525 224.009 177.525 224.009C177.525 224.009 157.499 235.793 161.829 241.444C166.16 247.093 185.249 229.229 185.249 229.229C185.249 229.229 164.945 241.797 170.332 246.917C174.403 250.785 192.605 235.581 192.605 235.581C192.605 235.581 175.227 246.505 179.243 250.664C183.68 255.26 201.361 242.28 201.361 242.28C213.348 251.132 222.677 250.445 229.255 249.167C230.848 248.856 223.84 213.511 223.84 213.511" fill="#E84E4B"/>
<path d="M184.189 219.492C181.788 220.789 179.347 222.089 177.068 223.597C174.789 225.105 172.561 226.695 170.433 228.407C165.213 232.611 162.603 236.059 162.787 235.863C167.149 231.241 175.224 225.716 177.503 224.208C179.777 222.703 181.976 221.083 184.251 219.576C184.307 219.539 184.247 219.46 184.189 219.492" fill="#17282F"/>
<path d="M189.785 227.62C186.789 229.412 183.749 231.081 180.832 233.005C177.928 234.92 175.34 236.992 172.577 239.101C172.364 239.264 172.521 239.325 172.741 239.171C175.587 237.172 178.372 235.545 181.241 233.58C184.101 231.623 186.905 229.54 189.833 227.688C189.879 227.66 189.831 227.593 189.785 227.62Z" fill="#17282F"/>
<path d="M195.841 233.735C191.123 236.237 186.871 239.609 182.78 243.015C182.577 243.185 182.789 243.241 183.007 243.08C187.291 239.913 190.628 237.397 195.929 233.899C196.012 233.844 195.941 233.681 195.841 233.735Z" fill="#17282F"/>
<path d="M237.197 213.116C235.231 213.031 228.303 213.327 223.659 212.931C213.201 212.04 198.497 209.979 193.216 209.723C186.967 209.419 182.708 210.521 179.872 212.521C178.812 213.271 178.423 213.831 179.54 213.241C184.148 210.815 187.772 210.303 194.477 210.601C199.087 210.805 213.088 212.713 223.64 213.523C228.26 213.877 235.305 213.565 237.191 213.363C237.331 213.347 237.336 213.12 237.197 213.116" fill="#17282F"/>
<path d="M294.776 198.353L264.917 194.412C264.917 194.412 263.253 179.367 263.508 170.911C263.844 159.723 268.079 157.224 276.797 167.821C282.632 174.912 294.776 198.353 294.776 198.353Z" fill="#FABB1E"/>
<path d="M286.555 189.951C286.008 189.951 285.565 190.395 285.565 190.94C285.565 191.487 286.008 191.929 286.555 191.929C287.101 191.929 287.544 191.487 287.544 190.94C287.544 190.395 287.101 189.951 286.555 189.951ZM276.041 189.951C275.495 189.951 275.052 190.395 275.052 190.94C275.052 191.487 275.495 191.929 276.041 191.929C276.587 191.929 277.031 191.487 277.031 190.94C277.031 190.395 276.587 189.951 276.041 189.951ZM265.527 189.951C264.98 189.951 264.537 190.395 264.537 190.94C264.537 191.487 264.98 191.929 265.527 191.929C266.073 191.929 266.517 191.487 266.517 190.94C266.517 190.395 266.073 189.951 265.527 189.951ZM291.808 197.74C291.621 197.74 291.448 197.793 291.303 197.888L292.515 198.061C292.356 197.86 292.103 197.74 291.808 197.74V197.74ZM276.041 174.091C275.495 174.091 275.052 174.533 275.052 175.08C275.052 175.625 275.495 176.069 276.041 176.069C276.587 176.069 277.031 175.625 277.031 175.08C277.031 174.533 276.587 174.091 276.041 174.091ZM265.527 174.091C264.98 174.091 264.537 174.533 264.537 175.08C264.537 175.625 264.98 176.069 265.527 176.069C266.073 176.069 266.517 175.625 266.517 175.08C266.517 174.533 266.073 174.091 265.527 174.091ZM281.299 181.883C280.751 181.883 280.308 182.325 280.308 182.872C280.308 183.419 280.751 183.861 281.299 183.861C281.844 183.861 282.287 183.419 282.287 182.872C282.287 182.325 281.844 181.883 281.299 181.883ZM270.784 181.883C270.237 181.883 269.795 182.325 269.795 182.872C269.795 183.419 270.237 183.861 270.784 183.861C271.331 183.861 271.773 183.419 271.773 182.872C271.773 182.325 271.331 181.883 270.784 181.883ZM271.773 167.011C271.773 167.559 271.331 168.001 270.784 168.001C270.237 168.001 269.795 167.559 269.795 167.011C269.795 166.464 270.237 166.021 270.784 166.021C271.331 166.021 271.773 166.464 271.773 167.011Z" fill="white"/>
<path d="M268.557 194.901C268.245 194.801 265.192 194.296 264.963 194.323C264.811 192.549 263.997 184.257 263.885 183.397C263.867 183.263 263.695 183.271 263.7 183.407C263.713 183.904 263.765 185.797 263.84 187.919C263.828 187.889 263.815 187.859 263.804 187.831C263.652 187.436 263.471 187.055 263.299 186.668C263.12 186.271 262.993 185.847 262.849 185.436C262.805 185.309 262.607 185.392 262.656 185.517C262.811 185.909 262.987 186.3 263.109 186.703C263.224 187.081 263.327 187.467 263.457 187.84C263.588 188.213 263.724 188.584 263.859 188.956C263.864 188.975 263.872 188.992 263.88 189.009C263.969 191.405 264.083 193.839 264.197 194.731C264.216 194.873 268.223 195.029 268.549 195.009C268.605 195.007 268.608 194.919 268.557 194.901" fill="#17282F"/>
<path d="M292.119 195.121C287.813 194.248 283.505 193.439 279.156 192.819C276.985 192.509 274.812 192.232 272.635 191.989C270.459 191.747 268.251 191.728 266.084 191.452C265.964 191.439 265.948 191.631 266.068 191.64C268.245 191.799 270.424 192.257 272.589 192.535C274.764 192.813 276.937 193.104 279.108 193.405C283.443 194.009 287.784 194.607 292.104 195.309C292.224 195.329 292.235 195.145 292.119 195.121Z" fill="#17282F"/>
<path d="M285.913 181.795C285.877 181.753 285.816 181.791 285.833 181.841C286.284 183.233 292.427 194.991 294.48 198.108C294.441 198.101 292.147 197.928 292.136 198.02C292.124 198.113 294.949 198.545 295.173 198.507C295.241 198.497 286.883 182.925 285.913 181.795" fill="#17282F"/>
<path d="M245.563 166.247C243.413 171.992 242.188 189.972 248.395 189.896C254.603 189.823 264.973 168.009 263.787 162.48C262.6 156.951 248.827 157.524 245.563 166.247" fill="#E84E4B"/>
<path d="M259.683 164.801C259.491 166.175 253.864 175.485 247.693 175.755C245.683 175.839 244.733 164.888 244.733 164.888L244.477 164.095L240.917 153L253.447 143.257L255.267 141.952C255.267 141.952 256.04 145.053 256.965 148.923C257.009 149.101 257.053 149.281 257.097 149.473C257.155 149.691 257.213 149.895 257.257 150.101C257.403 150.676 257.549 151.267 257.683 151.856C257.785 152.304 257.889 152.74 257.98 153.215C258.084 153.688 258.175 154.151 258.279 154.625C259.201 159.32 259.756 164.22 259.683 164.801" fill="#E84E4B"/>
<path d="M256.965 148.923C254.539 158.229 247.672 162.557 244.477 164.095L240.917 153L253.447 143.257L255.267 141.952C255.267 141.952 256.04 145.053 256.965 148.923" fill="#17282F"/>
<path d="M223.924 133.229C220.771 153.435 232.516 157.605 236.873 158.281C240.829 158.893 254.377 160.477 259.601 140.707C264.827 120.935 256.428 113.081 247.455 111.2C238.481 109.32 227.077 113.024 223.924 133.229" fill="#E84E4B"/>
<path d="M228.131 130.736C228.613 130.721 229.056 130.627 229.532 130.563C230.069 130.491 230.504 130.488 230.928 130.113C231.156 129.912 231.176 129.467 231.001 129.228C230.596 128.672 229.916 128.596 229.267 128.657C228.56 128.724 228.033 128.955 227.529 129.449C227.04 129.931 227.493 130.755 228.131 130.736Z" fill="#17282F"/>
<path d="M241.292 132.14C240.819 132.044 240.397 131.876 239.94 131.732C239.421 131.571 238.993 131.495 238.64 131.053C238.449 130.817 238.503 130.375 238.716 130.169C239.211 129.688 239.892 129.729 240.524 129.899C241.208 130.084 241.688 130.4 242.101 130.975C242.501 131.531 241.916 132.267 241.292 132.14" fill="#17282F"/>
<path d="M238.14 137.051C238.156 136.999 238.241 137.127 238.233 137.184C238.039 138.563 238.048 140.176 239.251 140.772C239.288 140.789 239.276 140.859 239.231 140.847C237.725 140.467 237.735 138.325 238.14 137.051Z" fill="#17282F"/>
<path d="M239.532 135.739C241.777 135.811 241.467 140.296 239.387 140.228C237.34 140.161 237.651 135.677 239.532 135.739Z" fill="#17282F"/>
<path d="M240.396 136.036C240.771 136.317 241.124 136.792 241.592 136.871C242.135 136.963 242.58 136.523 242.969 136.095C243.008 136.051 243.045 136.093 243.041 136.152C242.995 137.012 242.603 137.871 241.673 137.936C240.825 137.995 240.275 137.192 240.12 136.312C240.091 136.149 240.247 135.923 240.396 136.036" fill="#17282F"/>
<path d="M230.385 136.043C230.377 135.989 230.272 136.103 230.271 136.16C230.229 137.552 229.947 139.14 228.661 139.524C228.621 139.536 228.621 139.605 228.668 139.603C230.216 139.48 230.569 137.369 230.385 136.043" fill="#17282F"/>
<path d="M229.233 134.516C227.008 134.208 226.557 138.68 228.619 138.965C230.647 139.245 231.099 134.773 229.233 134.516Z" fill="#17282F"/>
<path d="M228.271 134.716C227.893 134.917 227.501 135.312 227.076 135.297C226.584 135.281 226.271 134.76 226.004 134.265C225.976 134.213 225.937 134.248 225.931 134.307C225.82 135.159 226.013 136.077 226.819 136.325C227.552 136.551 228.176 135.872 228.465 135.041C228.52 134.888 228.423 134.635 228.271 134.716Z" fill="#17282F"/>
<path d="M237.296 147.66C236.955 147.977 236.612 148.419 236.105 148.449C235.619 148.477 235.056 148.245 234.617 148.063C234.573 148.045 234.528 148.091 234.556 148.132C234.904 148.675 235.656 149.028 236.304 148.931C236.937 148.836 237.261 148.299 237.428 147.727C237.451 147.645 237.345 147.613 237.296 147.66" fill="#17282F"/>
<path d="M231.9 142.172C231.9 142.172 231.445 144.223 231.365 145.199C231.36 145.291 231.592 145.353 231.923 145.399C231.937 145.405 231.945 145.413 231.96 145.404C233.665 145.813 235.452 145.359 236.616 144.035C236.691 143.945 236.575 143.835 236.481 143.888C235.115 144.728 233.671 144.857 232.139 144.759C232.091 144.483 233.033 141.275 232.88 141.251C232.349 141.161 231.267 141.44 230.619 141.573C231.443 137.276 232.947 133.147 233.703 128.856C233.727 128.701 233.509 128.639 233.452 128.772C231.568 132.989 230.513 137.912 229.549 142.328C229.423 142.877 231.496 142.307 231.9 142.172" fill="#17282F"/>
<path d="M232.501 145.16C232.501 145.16 233.261 146.42 234.415 146.957C234.84 147.157 235.308 147.265 235.817 147.179C236.863 147.008 236.977 146.075 236.865 145.256C236.777 144.583 236.525 143.987 236.525 143.987C236.525 143.987 234.903 145.239 232.501 145.16" fill="#17282F"/>
<path d="M234.415 146.957C234.84 147.157 235.308 147.265 235.817 147.179C236.863 147.008 236.977 146.075 236.865 145.256C235.761 145.264 234.609 145.903 234.415 146.957" fill="#F579BB"/>
<path d="M259.208 141.956C253.965 141.395 253.597 125.129 253.575 123.132C253.524 124.391 253.229 131.056 252.703 131.284C252.569 131.337 251.991 131.172 251.076 130.855L251.063 130.851C251.115 130.097 251.112 129.279 251.043 128.459C251.027 128.087 250.845 129.249 250.541 130.672C250.251 130.568 249.935 130.447 249.591 130.332C249.733 128.901 249.773 127.123 249.452 125.239C249.343 124.601 248.973 127.416 248.195 129.841C244.639 128.603 239.493 126.943 234.609 126.429C233.301 126.287 232.169 126.221 231.164 126.197C231.299 124.233 231.673 122.157 231.499 122.597C230.971 123.849 230.632 125.115 230.416 126.188C229.872 126.18 229.367 126.181 228.913 126.193C228.977 123.409 230.613 119.079 230.12 119.724C228.233 122.228 227.329 124.927 226.953 126.361C225.035 126.592 224.485 126.924 224.469 126.429C224.441 125.537 226.081 117.855 232.532 112.597C239.545 106.884 252.761 106.268 259.465 116.327C259.465 116.327 265.264 120.733 265.764 127.2C266.267 133.655 262.237 142.277 259.208 141.956" fill="#17282F"/>
<path d="M256.148 141.757C256.148 141.757 261.036 135.693 263.817 137.479C266.599 139.264 262.619 148.267 259.14 149.297C255.661 150.328 254.644 147.127 254.644 147.127L256.148 141.757Z" fill="#E84E4B"/>
<path d="M262.612 140.031C262.668 140.029 262.673 140.107 262.624 140.123C260.18 140.924 258.777 143.044 257.744 145.271C258.511 144.439 259.507 144.023 260.629 144.945C260.688 144.993 260.621 145.087 260.556 145.067C259.596 144.792 258.881 144.913 258.169 145.648C257.667 146.169 257.3 146.845 256.921 147.461C256.796 147.667 256.42 147.527 256.517 147.287C256.525 147.269 256.533 147.251 256.541 147.232C256.688 144.196 259.336 140.113 262.612 140.031" fill="#17282F"/>
<path d="M35.3562 216.452C35.3562 218.412 33.7676 220 31.8087 220C29.8494 220 28.2619 218.412 28.2619 216.452C28.2619 214.495 29.8494 212.905 31.8087 212.905C33.7676 212.905 35.3562 214.495 35.3562 216.452Z" fill="white"/>
</svg>
